<?xml version="1.0" encoding="UTF-8" standalone="no"?>
<!DOCTYPE svg PUBLIC "-//W3C//DTD SVG 1.1//EN"
 "http://www.w3.org/Graphics/SVG/1.1/DTD/svg11.dtd">
<!-- Generated by graphviz version 2.47.0 (20210316.0004)
 -->
<!-- Title: dependencies Pages: 1 -->
<svg width="783pt" height="290pt"
 viewBox="0.00 0.00 783.00 290.00" xmlns="http://www.w3.org/2000/svg" xmlns:xlink="http://www.w3.org/1999/xlink">
<g id="graph0" class="graph" transform="scale(1 1) rotate(0) translate(4 286)">
<title>dependencies</title>
<polygon fill="white" stroke="transparent" points="-4,4 -4,-286 779,-286 779,4 -4,4"/>
<text text-anchor="start" x="366.51" y="-42.4" font-family="Times-12" font-weight="bold" font-size="14.00">Legend</text>
<polygon fill="#ffffb3" stroke="transparent" points="153.5,-10 153.5,-30 173.5,-30 173.5,-10 153.5,-10"/>
<text text-anchor="start" x="177.13" y="-15.4" font-family="Times-12" font-size="14.00"> &#160;Declarations</text>
<polygon fill="#8dd3c7" stroke="transparent" points="266.5,-10 266.5,-30 286.5,-30 286.5,-10 266.5,-10"/>
<text text-anchor="start" x="290.23" y="-15.4" font-family="Times-12" font-size="14.00"> &#160;Module</text>
<polygon fill="#80b1d3" stroke="transparent" points="352.5,-10 352.5,-30 372.5,-30 372.5,-10 352.5,-10"/>
<text text-anchor="start" x="376.28" y="-15.4" font-family="Times-12" font-size="14.00"> &#160;Bootstrap</text>
<polygon fill="#fdb462" stroke="transparent" points="449.5,-10 449.5,-30 469.5,-30 469.5,-10 449.5,-10"/>
<text text-anchor="start" x="473.17" y="-15.4" font-family="Times-12" font-size="14.00"> &#160;Providers</text>
<polygon fill="#fb8072" stroke="transparent" points="545.5,-10 545.5,-30 565.5,-30 565.5,-10 545.5,-10"/>
<text text-anchor="start" x="569.23" y="-15.4" font-family="Times-12" font-size="14.00"> &#160;Exports</text>
<g id="clust1" class="cluster">
<title>cluster_AppModule</title>
<polygon fill="none" stroke="black" stroke-dasharray="1,5" points="8,-70 8,-274 423,-274 423,-70 8,-70"/>
</g>
<g id="clust2" class="cluster">
<title>cluster_AppModule_declarations</title>
<polygon fill="none" stroke="black" points="16,-78 16,-130 138,-130 138,-78 16,-78"/>
</g>
<g id="clust4" class="cluster">
<title>cluster_AppModule_imports</title>
<polygon fill="none" stroke="black" points="146,-78 146,-130 415,-130 415,-78 146,-78"/>
</g>
<g id="clust6" class="cluster">
<title>cluster_AppModule_bootstrap</title>
<polygon fill="none" stroke="black" points="145,-214 145,-266 269,-266 269,-214 145,-214"/>
</g>
<g id="clust8" class="cluster">
<title>cluster_AppRoutingModule</title>
<polygon fill="none" stroke="black" stroke-dasharray="1,5" points="431,-138 431,-206 767,-206 767,-138 431,-138"/>
</g>
<g id="clust10" class="cluster">
<title>cluster_AppRoutingModule_imports</title>
<polygon fill="none" stroke="black" points="565,-146 565,-198 759,-198 759,-146 565,-146"/>
</g>
<g id="clust11" class="cluster">
<title>cluster_AppRoutingModule_exports</title>
<polygon fill="none" stroke="black" points="439,-146 439,-198 557,-198 557,-146 439,-146"/>
</g>
<!-- AppComponent -->
<g id="node1" class="node">
<title>AppComponent</title>
<polygon fill="#ffffb3" stroke="black" points="129.94,-122 24.06,-122 24.06,-86 129.94,-86 129.94,-122"/>
<text text-anchor="middle" x="77" y="-99.8" font-family="Times,serif" font-size="14.00">AppComponent</text>
</g>
<!-- AppModule -->
<g id="node2" class="node">
<title>AppModule</title>
<polygon fill="#8dd3c7" stroke="black" points="248.66,-190 245.66,-194 224.66,-194 221.66,-190 165.34,-190 165.34,-154 248.66,-154 248.66,-190"/>
<text text-anchor="middle" x="207" y="-167.8" font-family="Times,serif" font-size="14.00">AppModule</text>
</g>
<!-- AppComponent&#45;&gt;AppModule -->
<g id="edge1" class="edge">
<title>AppComponent&#45;&gt;AppModule</title>
<path fill="none" stroke="black" d="M77,-122.22C77,-142.37 77,-172 77,-172 77,-172 155.15,-172 155.15,-172"/>
<polygon fill="black" stroke="black" points="155.15,-175.5 165.15,-172 155.15,-168.5 155.15,-175.5"/>
</g>
<!-- AppComponent  -->
<g id="node5" class="node">
<title>AppComponent </title>
<polygon fill="#80b1d3" stroke="black" points="261.44,-258 152.56,-258 152.56,-222 261.44,-222 261.44,-258"/>
<text text-anchor="middle" x="207" y="-235.8" font-family="Times,serif" font-size="14.00">AppComponent </text>
</g>
<!-- AppModule&#45;&gt;AppComponent  -->
<g id="edge4" class="edge">
<title>AppModule&#45;&gt;AppComponent </title>
<path fill="none" stroke="black" stroke-dasharray="1,5" d="M207,-190.22C207,-190.22 207,-211.73 207,-211.73"/>
<polygon fill="black" stroke="black" points="203.5,-211.73 207,-221.73 210.5,-211.73 203.5,-211.73"/>
</g>
<!-- BrowserModule -->
<g id="node3" class="node">
<title>BrowserModule</title>
<polygon fill="#8dd3c7" stroke="black" points="260.47,-122 257.47,-126 236.47,-126 233.47,-122 153.53,-122 153.53,-86 260.47,-86 260.47,-122"/>
<text text-anchor="middle" x="207" y="-99.8" font-family="Times,serif" font-size="14.00">BrowserModule</text>
</g>
<!-- BrowserModule&#45;&gt;AppModule -->
<g id="edge2" class="edge">
<title>BrowserModule&#45;&gt;AppModule</title>
<path fill="none" stroke="black" d="M207,-122.22C207,-122.22 207,-143.73 207,-143.73"/>
<polygon fill="black" stroke="black" points="203.5,-143.73 207,-153.73 210.5,-143.73 203.5,-143.73"/>
</g>
<!-- AppRoutingModule -->
<g id="node4" class="node">
<title>AppRoutingModule</title>
<polygon fill="#8dd3c7" stroke="black" points="407.27,-122 404.27,-126 383.27,-126 380.27,-122 278.73,-122 278.73,-86 407.27,-86 407.27,-122"/>
<text text-anchor="middle" x="343" y="-99.8" font-family="Times,serif" font-size="14.00">AppRoutingModule</text>
</g>
<!-- AppRoutingModule&#45;&gt;AppModule -->
<g id="edge3" class="edge">
<title>AppRoutingModule&#45;&gt;AppModule</title>
<path fill="none" stroke="black" d="M343,-122.22C343,-142.37 343,-172 343,-172 343,-172 258.91,-172 258.91,-172"/>
<polygon fill="black" stroke="black" points="258.91,-168.5 248.91,-172 258.91,-175.5 258.91,-168.5"/>
</g>
<!-- RouterModule  -->
<g id="node7" class="node">
<title>RouterModule </title>
<polygon fill="#fb8072" stroke="black" points="548.65,-190 447.35,-190 447.35,-154 548.65,-154 548.65,-190"/>
<text text-anchor="middle" x="498" y="-167.8" font-family="Times,serif" font-size="14.00">RouterModule </text>
</g>
<!-- AppRoutingModule&#45;&gt;RouterModule  -->
<g id="edge6" class="edge">
<title>AppRoutingModule&#45;&gt;RouterModule </title>
<path fill="none" stroke="black" stroke-dasharray="5,2" d="M407.39,-110C449.97,-110 498,-110 498,-110 498,-110 498,-143.73 498,-143.73"/>
<polygon fill="black" stroke="black" points="494.5,-143.73 498,-153.73 501.5,-143.73 494.5,-143.73"/>
</g>
<!-- RouterModule.forRoot(args) -->
<g id="node6" class="node">
<title>RouterModule.forRoot(args)</title>
<polygon fill="#8dd3c7" stroke="black" points="750.84,-190 747.84,-194 726.84,-194 723.84,-190 573.16,-190 573.16,-154 750.84,-154 750.84,-190"/>
<text text-anchor="middle" x="662" y="-167.8" font-family="Times,serif" font-size="14.00">RouterModule.forRoot(args)</text>
</g>
<!-- RouterModule.forRoot(args)&#45;&gt;AppRoutingModule -->
<g id="edge5" class="edge">
<title>RouterModule.forRoot(args)&#45;&gt;AppRoutingModule</title>
<path fill="none" stroke="black" d="M662,-153.71C662,-131.79 662,-98 662,-98 662,-98 417.55,-98 417.55,-98"/>
<polygon fill="black" stroke="black" points="417.55,-94.5 407.55,-98 417.55,-101.5 417.55,-94.5"/>
</g>
</g>
</svg>
